<?xml version="1.0" encoding="UTF-8"?>
<svg xmlns="http://www.w3.org/2000/svg" viewBox="0 0 40 40" version="1.1" width="120px" height="120px">
<g id="surface1">
<path style=" fill:#DFF0FE;" d="M 20 38.5 C 9.6875 38.5 2.5 35.863281 2.5 33.5 C 2.5 31.136719 9.6875 28.5 20 28.5 C 30.3125 28.5 37.5 31.136719 37.5 33.5 C 37.5 35.863281 30.3125 38.5 20 38.5 Z "/>
<path style=" fill:#4788C7;" d="M 20 29 C 30.378906 29 37 31.664063 37 33.5 C 37 35.335938 30.378906 38 20 38 C 9.621094 38 3 35.335938 3 33.5 C 3 31.664063 9.621094 29 20 29 M 20 28 C 10.058594 28 2 30.460938 2 33.5 C 2 36.539063 10.058594 39 20 39 C 29.941406 39 38 36.539063 38 33.5 C 38 30.460938 29.941406 28 20 28 Z "/>
<path style=" fill:#98CCFD;" d="M 20 33.203125 C 18.179688 30.902344 10.464844 20.785156 9.597656 13.304688 C 9.527344 12.828125 9.496094 12.414063 9.5 11.988281 C 9.523438 6.207031 14.230469 1.5 20 1.5 C 25.789063 1.5 30.5 6.203125 30.5 11.988281 C 30.5 12.378906 30.472656 12.753906 30.414063 13.164063 C 29.621094 20.722656 21.835938 30.898438 20 33.203125 Z "/>
<path style=" fill:#4788C7;" d="M 20 2 C 25.515625 2 30 6.480469 30 11.988281 C 30 12.351563 29.972656 12.703125 29.914063 13.132813 C 29.1875 20.09375 22.332031 29.40625 20.003906 32.394531 C 17.6875 29.410156 10.894531 20.152344 10.089844 13.21875 C 10.027344 12.78125 9.996094 12.394531 10 11.992188 C 10.023438 6.480469 14.507813 2 20 2 M 20 1 C 13.925781 1 9.023438 5.921875 9 11.988281 C 8.996094 12.496094 9.039063 12.941406 9.101563 13.359375 C 10.105469 22.058594 20 34 20 34 C 20 34 29.992188 22.003906 30.910156 13.234375 C 30.964844 12.851563 31 12.445313 31 11.988281 C 31 5.917969 26.074219 1 20 1 Z "/>
<path style=" fill:#FFFFFF;" d="M 24.5 12 C 24.5 14.484375 22.484375 16.5 20 16.5 C 17.515625 16.5 15.5 14.484375 15.5 12 C 15.5 9.515625 17.515625 7.5 20 7.5 C 22.484375 7.5 24.5 9.515625 24.5 12 Z "/>
<path style=" fill:#4788C7;" d="M 20 8 C 22.210938 8 24 9.789063 24 12 C 24 14.210938 22.210938 16 20 16 C 17.789063 16 16 14.210938 16 12 C 16 9.789063 17.789063 8 20 8 M 20 7 C 17.242188 7 15 9.242188 15 12 C 15 14.757813 17.242188 17 20 17 C 22.757813 17 25 14.757813 25 12 C 25 9.242188 22.757813 7 20 7 Z "/>
</g>
</svg>
